<?xml version="1.0" encoding="utf-8"?>
<svg xmlns="http://www.w3.org/2000/svg" fill="none" height="25" viewBox="0 0 48 25" width="48">
<g clip-path="url(#clip0_6913_4871)">
<path d="M16.4316 15.4684C18.5827 17.6195 21.1989 18.7568 23.9931 18.7568C31.6019 18.7568 35.7515 10.4831 35.7515 6.22812C35.7915 4.88731 35.5262 3.89534 35.0248 3.56831C33.168 2.173 28.9203 0.715934 23.9822 0.806774C19.3676 0.719568 15.0217 2.18027 12.9361 3.57195C12.4564 3.89534 12.2093 4.88731 12.2275 6.22812C12.2384 8.66627 13.5501 12.5906 16.4316 15.4684Z" fill="white"/>
<path d="M16.7939 7.86719C16.7466 7.86719 16.7103 7.91806 16.6558 7.93259C16.6013 7.94712 16.5105 7.99072 16.525 8.01979C16.5868 8.11063 16.7248 8.07793 16.8193 8.01979C16.9138 7.96166 16.8665 7.87809 16.7939 7.86719Z" fill="#95969B"/>
<path d="M16.773 7.48798C16.822 7.47331 16.8695 7.45384 16.9147 7.42984C16.9303 7.41747 16.9426 7.40142 16.9505 7.38311C16.9583 7.36481 16.9615 7.34484 16.9597 7.32501C16.9579 7.30518 16.9511 7.28611 16.9401 7.26952C16.9291 7.25293 16.9141 7.23935 16.8966 7.23C16.773 7.20456 16.6604 7.32811 16.5332 7.34628C16.5695 7.43348 16.6713 7.53158 16.773 7.48798Z" fill="#95969B"/>
<path d="M23.9917 19.4725C32.0183 19.4507 36.5821 11.0098 36.5894 6.07902C36.5894 5.99182 36.5894 5.90098 36.5894 5.81014C36.5894 4.48024 36.3242 3.45556 35.6919 3.01225C33.5299 1.3953 29.0824 0.00363361 24.4277 0H23.5666C18.9083 0 14.537 1.35534 12.3024 3.01953C11.7028 3.481 11.4194 4.47297 11.4121 5.81378C11.4121 5.90098 11.4121 5.99182 11.4121 6.08266C11.4049 11.0098 15.9759 19.4507 23.9917 19.4725ZM12.5022 3.32111C14.646 1.72596 18.9737 0.374254 23.5556 0.377887H24.4168C29.0061 0.377887 33.4173 1.76956 35.4812 3.32111C35.9208 3.59727 36.226 4.52747 36.2079 5.81014C36.2079 5.89735 36.2079 5.98455 36.2079 6.07176C36.2079 8.44451 35.0887 11.722 32.9958 14.3818C30.9028 17.0416 27.8542 19.1055 23.9844 19.1055C20.1146 19.1055 17.0806 17.0562 14.9767 14.3818C12.8728 11.7075 11.7609 8.4445 11.7646 6.07902C11.7646 5.98455 11.7646 5.89735 11.7646 5.81378C11.7609 4.53475 12.0771 3.62634 12.5022 3.32111Z" fill="#95969B"/>
<path d="M15.5593 7.28218C15.4321 7.16227 15.1959 7.28218 15.1342 7.39846C15.0724 7.51474 15.2832 7.52928 15.3922 7.50747C15.5012 7.48567 15.6683 7.38392 15.5593 7.28218Z" fill="#95969B"/>
<path d="M16.4316 15.4684C18.5827 17.6195 21.1989 18.7568 23.9931 18.7568C31.6019 18.7568 35.7515 10.4831 35.7515 6.22812C35.7915 4.88731 35.5262 3.89534 35.0248 3.56831C33.168 2.173 28.9203 0.715934 23.9822 0.806774C19.3676 0.719568 15.0217 2.18027 12.9361 3.57195C12.4564 3.89534 12.2093 4.88731 12.2275 6.22812C12.2384 8.66627 13.5501 12.5906 16.4316 15.4684ZM15.0944 7.707C14.9309 7.62343 14.6947 7.43811 14.8183 7.28186C14.8982 7.18012 15.1162 7.22736 15.2398 7.10746C15.2834 7.06385 15.327 6.97664 15.3887 7.01661C15.4505 7.05658 15.6068 7.01661 15.6903 7.08202C15.7739 7.14742 16.0028 7.23463 16.0028 7.39088C16.0028 7.54712 15.7812 7.59072 15.7521 7.71426C15.723 7.8378 15.952 7.88141 16.0283 8.00132C16.1046 8.12123 15.9229 8.30654 15.7775 8.36468C15.6365 8.42397 15.4823 8.4451 15.3305 8.42597C15.1788 8.40684 15.0347 8.34811 14.9127 8.25568C14.702 8.07036 14.8873 7.79421 15.0944 7.707ZM16.1336 8.57544C16.1807 8.56878 16.2288 8.57586 16.272 8.59584C16.3152 8.61582 16.3517 8.64785 16.3771 8.68808C16.417 8.78255 16.4606 8.94606 16.3771 9.00056C16.2935 9.05507 16.0537 9.00056 16.0646 8.84068C16.0573 8.74258 16.0537 8.58997 16.1336 8.5718V8.57544ZM16.2317 14.6835C16.1706 14.6543 16.1208 14.6058 16.09 14.5455C16.09 14.52 16.09 14.491 16.1155 14.4982C16.8098 14.6293 17.5251 14.5969 18.2048 14.4037C18.2738 14.3783 18.3356 14.4256 18.2266 14.5128C18.0096 14.6644 17.7612 14.765 17.4999 14.8071C17.075 14.9098 16.6278 14.865 16.2317 14.6799V14.6835ZM19.2004 15.6137C18.8843 15.5011 18.917 15.443 18.9751 15.4284C19.245 15.4171 19.5135 15.3843 19.7782 15.3303C20.0747 15.1715 20.3895 15.0494 20.7156 14.967C20.9412 14.9303 21.1727 14.9594 21.3821 15.0509C21.5916 15.1425 21.7702 15.2924 21.8965 15.4829C21.9474 15.5738 21.6458 15.4829 21.5332 15.4648C21.0721 15.4414 20.6117 15.5208 20.1851 15.6973C19.8563 15.7777 19.51 15.7471 19.2004 15.6101V15.6137ZM24.6981 16.4495C23.717 16.642 22.9321 16.0861 21.9983 15.9153C21.7825 15.8862 21.5637 15.8862 21.3479 15.9153C20.9845 15.9371 20.6611 16.1333 20.2796 16.1043C20.1633 16.1043 20.2796 16.0425 20.2796 16.0389C20.6436 15.8792 21.0204 15.7503 21.406 15.6537C21.7386 15.5792 22.0835 15.5792 22.4161 15.6537C22.6907 15.7127 22.9527 15.8197 23.1901 15.9698C23.3027 16.0425 23.4408 16.137 23.5535 16.0788C23.6189 16.0425 23.677 15.988 23.7533 16.0134C23.9314 16.0788 23.8514 16.1442 24.2657 16.2496C24.4071 16.2757 24.5466 16.3109 24.6835 16.355C24.8325 16.4059 24.7235 16.4458 24.6981 16.4495ZM21.3152 12.2381C21.2461 12.2381 21.257 12.2781 21.257 12.329V12.6451C21.257 12.6561 21.2549 12.6669 21.2507 12.6771C21.2465 12.6872 21.2403 12.6964 21.2325 12.7042C21.2248 12.7119 21.2156 12.7181 21.2054 12.7223C21.1953 12.7265 21.1844 12.7287 21.1734 12.7287C21.1629 12.7282 21.1526 12.7257 21.1431 12.7212C21.1336 12.7167 21.125 12.7105 21.118 12.7027C21.1109 12.6949 21.1054 12.6858 21.1018 12.676C21.0982 12.6661 21.0967 12.6556 21.0972 12.6451V12.1545C21.0967 12.1442 21.0983 12.1339 21.1019 12.1242C21.1055 12.1145 21.111 12.1057 21.1182 12.0982C21.1253 12.0907 21.1339 12.0848 21.1434 12.0807C21.1529 12.0767 21.1631 12.0746 21.1734 12.0746H22.903C22.9242 12.0746 22.9446 12.083 22.9596 12.098C22.9746 12.113 22.983 12.1333 22.983 12.1545C22.9835 12.1653 22.9818 12.1761 22.978 12.1862C22.9742 12.1964 22.9684 12.2056 22.9609 12.2134C22.9534 12.2212 22.9444 12.2275 22.9345 12.2317C22.9246 12.2359 22.9139 12.2381 22.903 12.2381H21.3152ZM22.6814 12.4525C22.6814 12.4789 22.6712 12.5042 22.6529 12.5232C22.6346 12.5422 22.6096 12.5533 22.5833 12.5542H22.3725C22.3462 12.5533 22.3212 12.5422 22.3029 12.5232C22.2846 12.5042 22.2744 12.4789 22.2744 12.4525C22.2744 12.4265 22.2848 12.4015 22.3032 12.3831C22.3216 12.3647 22.3465 12.3544 22.3725 12.3544H22.5833C22.5973 12.3523 22.6117 12.3533 22.6253 12.3572C22.639 12.3612 22.6516 12.3681 22.6623 12.3774C22.673 12.3868 22.6815 12.3983 22.6873 12.4113C22.6932 12.4242 22.6961 12.4383 22.6959 12.4525H22.6814ZM21.9074 12.4525C21.9065 12.4792 21.8955 12.5045 21.8766 12.5234C21.8577 12.5423 21.8324 12.5533 21.8057 12.5542H21.5986C21.5716 12.5542 21.5457 12.5435 21.5266 12.5244C21.5076 12.5054 21.4968 12.4795 21.4968 12.4525C21.4968 12.4393 21.4995 12.4262 21.5046 12.4141C21.5098 12.4019 21.5173 12.391 21.5268 12.3818C21.5363 12.3726 21.5476 12.3655 21.5599 12.3608C21.5722 12.3561 21.5854 12.3539 21.5986 12.3544H21.8057C21.8199 12.3523 21.8344 12.3533 21.8482 12.3573C21.8621 12.3612 21.8749 12.3681 21.8859 12.3773C21.8969 12.3866 21.9058 12.3981 21.912 12.411C21.9182 12.424 21.9216 12.4381 21.922 12.4525H21.9074ZM22.7032 10.6357C22.7154 10.6331 22.728 10.6333 22.7401 10.6362C22.7522 10.6391 22.7635 10.6447 22.7732 10.6525C22.7828 10.6603 22.7906 10.6702 22.796 10.6815C22.8013 10.6927 22.8041 10.705 22.8041 10.7174C22.8041 10.7299 22.8013 10.7422 22.796 10.7534C22.7906 10.7647 22.7828 10.7745 22.7732 10.7824C22.7635 10.7902 22.7522 10.7958 22.7401 10.7987C22.728 10.8016 22.7154 10.8018 22.7032 10.7992H21.6894C21.6204 10.7992 21.6313 10.8392 21.6313 10.89V11.2534C21.6313 11.2642 21.6291 11.2749 21.6249 11.2849C21.6206 11.2948 21.6144 11.3038 21.6066 11.3113C21.5988 11.3187 21.5895 11.3245 21.5794 11.3283C21.5693 11.3321 21.5585 11.3338 21.5477 11.3333C21.5265 11.3333 21.5062 11.3249 21.4912 11.3099C21.4762 11.2949 21.4678 11.2746 21.4678 11.2534V10.7084C21.4673 10.6976 21.469 10.6868 21.4728 10.6767C21.4766 10.6665 21.4824 10.6573 21.4899 10.6495C21.4973 10.6417 21.5063 10.6354 21.5162 10.6312C21.5262 10.627 21.5369 10.6248 21.5477 10.6248L22.7032 10.6357ZM21.9474 10.3959V9.58558C21.9474 9.56727 21.9547 9.5497 21.9676 9.53676C21.9806 9.52381 21.9981 9.51654 22.0164 9.51654C22.0348 9.51654 22.0523 9.52381 22.0653 9.53676C22.0782 9.5497 22.0855 9.56727 22.0855 9.58558V10.3959C22.0855 10.4049 22.0837 10.4139 22.0802 10.4223C22.0768 10.4307 22.0717 10.4383 22.0653 10.4447C22.0588 10.4511 22.0512 10.4562 22.0429 10.4597C22.0345 10.4631 22.0255 10.4649 22.0164 10.4649C22.0074 10.4649 21.9984 10.4631 21.99 10.4597C21.9817 10.4562 21.974 10.4511 21.9676 10.4447C21.9612 10.4383 21.9561 10.4307 21.9527 10.4223C21.9492 10.4139 21.9474 10.4049 21.9474 10.3959ZM26.4495 7.7615C26.5548 7.7942 26.6021 7.90322 26.6602 7.99406C26.8019 8.23662 26.9141 8.49523 26.9945 8.76438C27.1772 9.49111 27.197 10.2492 27.0526 10.9845C26.9394 11.4237 26.7593 11.8428 26.5185 12.2272C26.2828 12.6069 25.9634 12.9275 25.5847 13.1647C25.5847 13.1647 25.5483 13.1647 25.5301 13.1647C25.7627 12.547 25.4938 11.6567 24.738 11.6059C24.738 11.6059 24.738 11.5841 24.738 11.5768C25.2976 10.9155 25.3267 9.99254 25.2722 9.16408C25.0107 8.80594 24.6683 8.51461 24.2729 8.31382V8.43372C24.2195 8.41124 24.1673 8.38577 24.1167 8.35742V8.23388C23.4445 7.71064 22.765 7.34364 22.1 6.8531V6.55878C22.3653 6.61328 22.7504 6.71139 23.0157 6.78406C24.2293 7.12198 25.3085 7.40904 26.464 7.77604L26.4495 7.7615ZM24.1167 6.98391V6.17725L24.2729 6.22085V7.02388L24.1167 6.98391ZM24.5927 6.90397C24.6345 6.80832 24.6965 6.72281 24.7744 6.65325C24.8361 6.58785 24.9052 6.46067 24.9706 6.48974C25.1847 6.57046 25.3801 6.69411 25.5447 6.8531C25.5447 6.8531 25.5447 6.91124 25.5447 6.91487C25.2329 6.94326 24.9192 6.94447 24.6072 6.9185L24.5927 6.90397ZM26.0461 13.8587C26.0461 13.8587 26.0025 13.9241 25.9953 13.9205C25.3849 13.6256 24.8362 13.2175 24.3783 12.7178V12.3544C24.8702 12.93 25.4302 13.4437 26.0461 13.8841V13.8587ZM22.8267 7.53258C23.2773 7.84871 23.6697 8.1067 24.1203 8.42282C24.445 8.63158 24.7525 8.86609 25.0396 9.12411C25.1606 9.598 25.117 10.0989 24.9161 10.5448C24.7717 11.0169 24.4956 11.4379 24.1203 11.7585C24.1203 11.7585 24.0876 11.7585 24.0912 11.7585C24.1201 11.6717 24.1245 11.5787 24.104 11.4896C24.0835 11.4005 24.0389 11.3188 23.975 11.2534C23.4081 10.6175 22.7177 10.0216 22.1073 9.46203V7.04932C22.2926 7.21283 22.616 7.39814 22.8267 7.54712V7.53258ZM24.2802 11.8312V12.4634C24.2802 12.4856 24.2714 12.5068 24.2557 12.5225C24.24 12.5382 24.2188 12.547 24.1966 12.547C24.1744 12.547 24.1532 12.5382 24.1375 12.5225C24.1218 12.5068 24.113 12.4856 24.113 12.4634V11.8312C24.113 11.809 24.1218 11.7877 24.1375 11.7721C24.1532 11.7564 24.1744 11.7476 24.1966 11.7476C24.2188 11.7476 24.24 11.7564 24.2557 11.7721C24.2714 11.7877 24.2802 11.809 24.2802 11.8312ZM24.0004 12.3326C23.6022 11.9064 23.232 11.4549 22.8922 10.9809V10.6357C23.0666 10.8719 23.5971 11.5041 23.9822 11.9583L24.0004 12.3326ZM22.6596 11.0863C22.6587 11.1126 22.6475 11.1376 22.6286 11.1559C22.6096 11.1742 22.5842 11.1844 22.5578 11.1844H22.3507C22.3244 11.1844 22.299 11.1742 22.2801 11.1559C22.2611 11.1376 22.2499 11.1126 22.249 11.0863C22.2499 11.0596 22.2609 11.0342 22.2798 11.0153C22.2987 10.9964 22.324 10.9854 22.3507 10.9845H22.5578C22.573 10.9839 22.588 10.9866 22.602 10.9923C22.616 10.998 22.6286 11.0067 22.6389 11.0177C22.6493 11.0288 22.6571 11.0419 22.662 11.0562C22.6668 11.0706 22.6684 11.0858 22.6669 11.1008L22.6596 11.0863ZM22.1509 11.0863C22.1509 11.1123 22.1405 11.1372 22.1221 11.1556C22.1037 11.174 22.0788 11.1844 22.0528 11.1844H21.842C21.816 11.1844 21.7911 11.174 21.7727 11.1556C21.7543 11.1372 21.7439 11.1123 21.7439 11.0863C21.7439 11.0599 21.7541 11.0346 21.7724 11.0156C21.7907 10.9966 21.8157 10.9855 21.842 10.9845H22.0528C22.0674 10.9844 22.082 10.9874 22.0954 10.9934C22.1088 10.9994 22.1207 11.0082 22.1304 11.0193C22.1401 11.0303 22.1472 11.0433 22.1514 11.0574C22.1556 11.0715 22.1566 11.0863 22.1545 11.1008L22.1509 11.0863ZM22.7831 11.3842C22.8043 11.3842 22.8247 11.3926 22.8397 11.4076C22.8547 11.4226 22.8631 11.443 22.8631 11.4642C22.8631 11.4854 22.8547 11.5057 22.8397 11.5207C22.8247 11.5357 22.8043 11.5441 22.7831 11.5441H21.5077C21.4351 11.5441 21.4496 11.5877 21.4496 11.6386V11.9547C21.4496 11.9769 21.4408 11.9981 21.4251 12.0138C21.4094 12.0295 21.3882 12.0383 21.366 12.0383C21.3552 12.0383 21.3445 12.0361 21.3346 12.0318C21.3246 12.0276 21.3156 12.0214 21.3082 12.0136C21.3007 12.0058 21.2949 11.9965 21.2911 11.9864C21.2873 11.9763 21.2856 11.9655 21.2861 11.9547V11.4642C21.2861 11.4533 21.2883 11.4426 21.2925 11.4327C21.2967 11.4228 21.303 11.4138 21.3108 11.4063C21.3186 11.3988 21.3278 11.393 21.338 11.3892C21.3481 11.3854 21.3589 11.3837 21.3697 11.3842H22.7831ZM22.6596 11.7912C22.6587 11.8179 22.6477 11.8432 22.6288 11.8621C22.6099 11.881 22.5845 11.892 22.5578 11.8929H22.3507C22.324 11.892 22.2987 11.881 22.2798 11.8621C22.2609 11.8432 22.2499 11.8179 22.249 11.7912C22.2499 11.7645 22.2609 11.7391 22.2798 11.7202C22.2987 11.7014 22.324 11.6903 22.3507 11.6894H22.5578C22.573 11.6888 22.588 11.6915 22.602 11.6972C22.616 11.703 22.6286 11.7116 22.6389 11.7227C22.6493 11.7337 22.6571 11.7468 22.662 11.7611C22.6668 11.7755 22.6684 11.7907 22.6669 11.8057L22.6596 11.7912ZM22.0274 11.7912C22.0265 11.8179 22.0154 11.8432 21.9966 11.8621C21.9777 11.881 21.9523 11.892 21.9256 11.8929H21.7185C21.6918 11.892 21.6664 11.881 21.6476 11.8621C21.6287 11.8432 21.6177 11.8179 21.6168 11.7912C21.6177 11.7645 21.6287 11.7391 21.6476 11.7202C21.6664 11.7014 21.6918 11.6903 21.7185 11.6894H21.9256C21.9407 11.6888 21.9558 11.6915 21.9698 11.6972C21.9838 11.703 21.9963 11.7116 22.0067 11.7227C22.017 11.7337 22.0249 11.7468 22.0297 11.7611C22.0345 11.7755 22.0362 11.7907 22.0346 11.8057L22.0274 11.7912ZM22.9721 11.7912V11.4133C23.2591 11.8057 24.7199 13.6625 25.9953 14.0804C26.1652 14.1752 26.3566 14.225 26.5512 14.225C26.7458 14.225 26.9372 14.1752 27.1071 14.0804L27.0308 14.4183C26.6731 14.5267 26.2895 14.5126 25.9407 14.3783C25.4248 14.2475 24.1603 13.4372 22.9794 11.8093L22.9721 11.7912ZM23.0884 12.1255C23.3754 12.5179 24.6217 14.0949 25.9008 14.5091C26.2588 14.6458 26.6546 14.6458 27.0127 14.5091L26.94 14.8143C26.581 14.9166 26.1986 14.9001 25.8499 14.7671C25.3485 14.6327 24.2766 14.1458 23.0956 12.5143L23.0884 12.1255ZM25.9953 14.9197C26.3323 14.9983 26.6829 14.9983 27.0199 14.9197C27.0199 14.9197 27.2597 13.7097 27.2852 13.5753C27.3106 13.4408 27.3361 13.5753 27.3361 13.5753C27.3361 13.5753 27.0817 14.9088 27.118 14.8943L27.0345 15.2358C26.7028 15.3448 26.345 15.3448 26.0134 15.2358C25.214 15.0941 24.5164 14.3819 23.2555 13.9604V12.9576C23.5389 13.3827 24.9706 14.8071 25.9916 14.9379L25.9953 14.9197ZM23.2773 14.2802C23.3883 14.535 23.5923 14.7377 23.8478 14.847C24.0295 14.9161 24.2802 14.6763 24.4619 14.7707C24.5273 14.8034 24.2947 14.9161 24.153 14.9233C23.9636 14.9471 23.7712 14.9206 23.5952 14.8466C23.4192 14.7727 23.2657 14.6538 23.1501 14.5019C22.8849 14.0477 22.6669 13.717 22.3725 13.7969C22.2236 13.8405 22.2308 13.8987 22.1509 13.8696C22.0709 13.8405 22.0746 13.7388 22.2199 13.648C22.5179 13.4663 23.0157 13.4735 23.2737 14.2984L23.2773 14.2802ZM24.7998 15.2213C24.7429 15.1525 24.6702 15.0984 24.588 15.0637C24.5058 15.0289 24.4164 15.0144 24.3274 15.0215C24.2656 15.0215 24.2148 14.9124 24.5273 14.8797C24.9924 14.8361 25.2976 15.2831 25.5883 15.3521C26.0243 15.4611 25.9335 15.6355 25.8608 15.5992C25.697 15.5284 25.5187 15.4974 25.3406 15.5088C25.1625 15.5202 24.9896 15.5736 24.8361 15.6646C24.7278 15.7088 24.6065 15.7088 24.4982 15.6646C24.1712 15.5883 23.8987 15.4175 23.5644 15.3448C23.3863 15.3085 23.2301 15.4575 23.0557 15.3703C22.9212 15.1341 23.5171 15.2177 23.5171 15.2177C23.8151 15.3049 24.1312 15.2903 24.4401 15.363C24.5515 15.3867 24.6666 15.3867 24.778 15.363C24.8107 15.3703 24.8652 15.3376 24.7962 15.2395L24.7998 15.2213ZM27.5068 16.573C26.7583 16.8673 25.1813 16.6711 25.0469 16.573C24.8361 16.4277 26.1043 16.4785 26.1043 16.4785C26.5592 16.5712 27.0274 16.5786 27.485 16.5003C27.5177 16.5185 27.5141 16.5876 27.5032 16.5912L27.5068 16.573ZM27.7321 16.3695C26.9059 16.4308 26.0756 16.4076 25.254 16.3005C25.0287 16.2642 24.5273 16.1915 24.7635 16.0897C25.0868 15.9444 25.2903 16.1261 25.6246 16.0025C25.7969 15.9202 25.9771 15.8557 26.1624 15.8099C26.5584 15.8094 26.9504 15.8898 27.3143 16.0461C27.6049 16.1333 27.8557 16.0461 28.1536 16.1588C28.3317 16.2533 28.4116 16.3005 27.7285 16.3877L27.7321 16.3695ZM30.4682 15.4139C30.232 15.4139 30.0722 15.294 29.8505 15.3012C29.7692 15.3112 29.6937 15.3483 29.6361 15.4066C29.5707 15.472 29.6943 15.4829 29.7124 15.5374C29.7236 15.5787 29.7208 15.6225 29.7044 15.662C29.6879 15.7015 29.6588 15.7344 29.6216 15.7554C29.2364 15.9989 28.8222 15.8318 27.9756 15.4175C27.7249 15.294 27.2997 15.5338 27.2053 15.5592C27.0018 15.6137 27.0345 15.4502 27.1035 15.4212C27.1731 15.3658 27.2557 15.329 27.3434 15.3144C27.4311 15.2998 27.5211 15.3077 27.6049 15.3376C27.7576 15.3812 27.8411 15.1741 28.0591 15.2613C28.5279 15.443 29.0257 15.7009 29.5126 15.4938C29.6289 15.4466 29.5126 15.443 29.5126 15.3448C29.5453 15.1777 29.6434 15.0796 29.8759 15.076C30.014 15.076 30.1812 15.2213 30.3192 15.2504C30.4573 15.2794 30.5663 15.1414 30.6354 15.2322C30.7044 15.323 30.5954 15.4248 30.4646 15.4321L30.4682 15.4139ZM30.1049 8.72441C30.1049 8.85522 29.9886 8.92789 29.9595 9.05507C29.9505 9.10504 29.9279 9.15156 29.8941 9.18951C29.7306 9.33122 29.647 9.51291 29.4871 9.65098C29.4744 9.66325 29.4583 9.67151 29.4408 9.67474C29.4234 9.67796 29.4054 9.67602 29.389 9.66915C29.3198 9.61699 29.2716 9.54183 29.2529 9.45722C29.2342 9.3726 29.2465 9.2841 29.2873 9.20768C29.4645 8.95551 29.6747 8.7282 29.9123 8.53182C29.9486 8.49912 29.9741 8.44099 30.0104 8.40102C30.0467 8.36105 30.0831 8.40102 30.1012 8.40102C30.1194 8.40102 30.1012 8.53183 30.0831 8.60086C30.0649 8.6699 30.0976 8.70261 30.0976 8.74258L30.1049 8.72441ZM31.5329 7.97588C31.482 8.11033 31.3221 8.15756 31.2313 8.2593C31.2198 8.27986 31.2138 8.303 31.2138 8.32652C31.2138 8.35005 31.2198 8.3732 31.2313 8.39376C31.4368 8.40752 31.6433 8.39408 31.8454 8.35378C31.8454 8.31018 31.8454 8.25568 31.8199 8.23024C31.6455 7.99406 31.7691 7.68156 31.7327 7.42358C31.7085 7.22901 31.6111 7.05098 31.4602 6.92577C31.2567 6.7877 30.9406 6.92577 30.6899 6.85674C30.5082 6.7986 30.6899 6.57694 30.8134 6.52244C31.0769 6.44237 31.3545 6.42007 31.6273 6.45704C31.7327 6.45704 31.7545 6.26082 31.8781 6.23902C32.0016 6.21722 32.0925 6.14818 32.2015 6.17361C32.3105 6.19905 32.2015 6.4534 32.2996 6.48974C32.6917 6.57326 33.0906 6.6207 33.4914 6.63145C33.5459 6.63145 33.6222 6.68232 33.5968 6.77316C33.5968 6.80223 33.5713 6.82403 33.5495 6.82766C33.1498 6.9403 32.6411 6.71866 32.3541 7.14016C32.2726 7.22571 32.2018 7.32089 32.1433 7.42358C32.0924 7.54349 32.1034 7.67066 32.0379 7.78694C31.9725 7.90321 32.0379 8.01222 32.0125 8.12486C31.9871 8.2375 31.8781 8.33924 31.9435 8.35014C32.2089 8.3925 32.478 8.40712 32.7465 8.39376C32.8228 8.39376 32.8228 8.26658 32.7719 8.23388C32.5612 8.10307 32.3395 7.89595 32.3904 7.707C32.4413 7.51805 32.801 7.12925 33.0118 7.2746C33.059 7.3073 33.0117 7.36907 33.0444 7.42358C33.1254 7.53898 33.2325 7.63361 33.357 7.69974C33.7021 7.89595 33.9965 8.17936 34.4107 8.19026C34.4361 8.19026 34.4906 8.22661 34.4906 8.24114C34.49 8.27817 34.4807 8.31453 34.4636 8.34738C34.4466 8.38024 34.4221 8.40869 34.3922 8.43052C34.3623 8.45234 34.3277 8.46695 34.2912 8.47318C34.2547 8.4794 34.2172 8.47709 34.1818 8.46642C34.0295 8.43284 33.881 8.38415 33.7385 8.32108C33.5641 8.24114 33.4659 8.04856 33.277 7.98316C32.9754 8.54273 33.1971 9.16044 33.1389 9.75999C33.1352 9.77693 33.128 9.79292 33.1177 9.80689C33.1074 9.82086 33.0943 9.83251 33.0793 9.84108C33.0642 9.84965 33.0474 9.85495 33.0302 9.85663C33.0129 9.85831 32.9955 9.85633 32.979 9.85083C32.7719 9.77452 32.7792 9.54198 32.7647 9.34576C32.2595 9.21399 31.7328 9.18679 31.2167 9.26582C31.1332 9.26582 31.1114 9.37483 31.0968 9.43296C31.0678 9.59648 31.046 9.82539 30.857 9.79633C30.7989 9.78089 30.7486 9.74451 30.7158 9.6942C30.6829 9.64388 30.6698 9.5832 30.679 9.5238C30.8897 9.02237 31.0423 8.43373 30.708 7.97226C30.6063 7.83055 30.3774 8.03039 30.1812 8.00858C30.1664 8.0078 30.152 8.00355 30.1391 7.99618C30.1263 7.9888 30.1154 7.97851 30.1072 7.96614C30.0991 7.95376 30.094 7.93963 30.0923 7.92492C30.0906 7.9102 30.0924 7.8953 30.0976 7.88142C30.1118 7.8389 30.1377 7.80128 30.1725 7.77297C30.2072 7.74466 30.2493 7.72682 30.2938 7.72154C30.7081 7.72154 30.966 7.42721 31.3112 7.2637C31.3344 7.24838 31.3616 7.24022 31.3893 7.24022C31.4171 7.24022 31.4443 7.24838 31.4675 7.2637C31.5329 7.3291 31.4675 7.43085 31.4675 7.48535C31.5384 7.64498 31.5587 7.82253 31.5256 7.99406L31.5329 7.97588ZM29.8869 6.73319C30.0467 6.77316 30.2829 6.91487 30.1993 7.11836C30.1485 7.231 30.0104 7.18739 29.905 7.17286C29.6438 7.12392 29.4004 7.00599 29.2001 6.8313C29.3002 6.76804 29.4132 6.72802 29.5308 6.71419C29.6484 6.70035 29.7675 6.71305 29.8796 6.75136L29.8869 6.73319ZM28.7968 7.92502C28.9241 7.8177 29.0765 7.74441 29.2398 7.712C29.4031 7.67959 29.572 7.68912 29.7306 7.7397C29.7742 7.7397 29.8142 7.7833 29.8105 7.81964C29.8105 7.91411 29.727 7.96499 29.647 8.00496C29.5671 8.04493 29.4726 8.17937 29.36 8.183C29.2105 8.19873 29.0623 8.22545 28.9167 8.26294C28.8832 8.27382 28.847 8.27248 28.8144 8.25918C28.7818 8.24588 28.7549 8.22146 28.7386 8.19026C28.7186 8.15032 28.7114 8.1052 28.7179 8.06101C28.7244 8.01682 28.7443 7.97568 28.775 7.94318L28.7968 7.92502ZM28.0701 12.7141C28.1791 12.8231 28.3753 12.8704 28.3934 13.023C28.4318 13.3459 28.3782 13.6732 28.2386 13.967C28.0991 14.2608 27.8795 14.5092 27.6049 14.6835C27.5362 14.7355 27.4633 14.7817 27.3869 14.8216C27.3869 14.8216 27.3506 14.8216 27.3542 14.8216C27.5945 14.5676 27.7495 14.245 27.7975 13.8987C27.8884 13.4517 27.743 13.241 27.7031 13.2664C27.4044 13.4851 27.0797 13.6657 26.7365 13.8042C26.7038 13.8042 26.6202 13.8224 26.6275 13.8042C26.7229 13.6067 26.7607 13.3863 26.7365 13.1683C26.7074 13.0593 26.5475 13.023 26.573 12.9212C26.5984 12.8195 26.6675 12.834 26.7147 12.7832C27.0131 12.4325 27.2158 12.0107 27.3033 11.5586C27.4322 11.0653 27.4146 10.5451 27.2525 10.0616C27.2271 10.0071 27.2234 9.90897 27.2525 9.89807C27.4156 9.91924 27.5727 9.97365 27.7139 10.0579C27.8344 10.1037 27.9399 10.1817 28.0192 10.2832C28.0768 10.3688 28.1118 10.4675 28.1209 10.5703C28.2078 11.2901 28.1858 12.019 28.0555 12.7323L28.0701 12.7141ZM27.5359 6.29352C27.9353 7.07946 28.1208 7.9567 28.0737 8.83705C28.0737 8.92062 28.0737 9.02964 28.0155 9.10594C27.9465 8.97513 27.932 8.82615 27.8738 8.6917C27.6572 8.15423 27.3431 7.66146 26.9473 7.23826C26.9473 7.23826 26.9473 7.11109 26.9473 7.03842C27.0038 6.68952 26.9927 6.33299 26.9145 5.9883C27.0364 5.976 27.1591 6.00018 27.2671 6.05776C27.3752 6.11534 27.4637 6.20372 27.5214 6.31169L27.5359 6.29352ZM26.8092 6.65688C26.7994 6.9626 26.7105 7.26056 26.5512 7.52168C26.546 7.52999 26.5381 7.53629 26.5289 7.53959C26.5197 7.54289 26.5096 7.54298 26.5003 7.53986C26.4465 7.36903 26.3588 7.21084 26.2423 7.07475C26.1035 6.91574 25.9374 6.78283 25.7518 6.68232C25.3895 6.4516 24.9953 6.2753 24.5818 6.15908C24.2485 6.0465 23.896 6.00201 23.5452 6.02823C23.1945 6.05444 22.8525 6.15084 22.5397 6.31169C22.5397 6.31169 22.4743 6.31169 22.4816 6.31169C22.5459 6.18913 22.6226 6.07346 22.7105 5.9665C22.8719 5.73089 22.9661 5.4558 22.983 5.17073C22.9861 4.68894 22.8456 4.21714 22.5797 3.8154C22.8158 3.87718 23.1356 4.04432 23.3391 3.8154C23.4494 3.97087 23.6097 4.08375 23.7933 4.13516C23.8819 4.15238 23.9732 4.14886 24.0602 4.12491C24.1472 4.10095 24.2275 4.05721 24.2947 3.99708C24.4219 4.10246 24.5345 4.22964 24.7271 4.20057C24.8507 4.20057 24.9597 4.03341 25.036 4.09155C25.1813 4.20056 25.3012 4.36044 25.4865 4.38951C25.6255 4.41202 25.7679 4.39953 25.9008 4.35317C25.9843 4.32774 26.0825 4.22963 26.1152 4.26597C26.3799 4.60568 26.5749 4.99434 26.689 5.40963C26.8031 5.82492 26.8341 6.25867 26.7801 6.68596L26.8092 6.65688ZM24.342 2.18754C24.5553 2.19774 24.7637 2.2548 24.9524 2.35469C25.0251 2.39465 25.0469 2.4746 25.1195 2.5073C25.2522 2.5817 25.3743 2.67334 25.4829 2.77982C25.5335 2.81937 25.5756 2.86882 25.6065 2.92516C25.6065 2.92516 25.6065 2.9615 25.6065 2.95787C25.3111 2.88246 25.0063 2.85064 24.7017 2.8634C24.5866 2.88285 24.4726 2.90832 24.3601 2.9397C24.3601 2.9397 24.3274 2.91789 24.3311 2.91063C24.3919 2.68235 24.3856 2.4414 24.3129 2.21662L24.342 2.18754ZM22.1618 3.53561L23.3173 3.68096L24.1857 3.17588L24.2329 2.1076H24.2802L24.3056 3.16135L25.1341 3.91714L26.137 4.04795V4.11699L22.14 3.60465L22.1618 3.53561ZM22.0274 4.60027H22.0673L22.0891 5.22525C22.1109 5.17801 22.0891 5.05446 22.1218 5.01085C22.1545 4.96725 22.0709 4.64749 22.1036 4.64749C22.2793 4.79828 22.4455 4.95968 22.6015 5.13077C22.6451 5.18164 22.7868 5.34152 22.7468 5.31971C22.4888 5.19617 22.2163 5.28701 22.0928 5.24341L22.1327 6.4425L21.991 6.38436L22.0274 4.60027ZM21.991 6.50427V6.7877C21.8566 6.65689 21.6095 6.48247 21.5041 6.3662C21.6624 6.40491 21.8159 6.46096 21.9619 6.53334L21.991 6.50427ZM20.196 5.63221C20.712 5.99557 21.1335 6.3335 21.624 6.72229C21.7694 6.8313 21.8493 6.86763 21.9874 6.96574V9.30579C21.9874 9.30579 21.922 9.30579 21.9183 9.30579C21.7439 8.90972 21.8311 8.45916 21.6058 8.07036C21.1298 7.23463 20.6139 6.50427 20.1524 5.66127C20.1124 5.65764 20.1524 5.65037 20.1669 5.66127L20.196 5.63221ZM19.5892 12.8813C20.2796 12.4271 21.0172 12.9757 21.3152 13.608C21.2483 13.4148 21.1707 13.2256 21.0826 13.0411C20.999 12.8449 21.0608 12.8013 21.1516 12.7069H23.0375C23.0593 12.7059 23.081 12.7093 23.1014 12.7168C23.1219 12.7244 23.1406 12.7359 23.1565 12.7508C23.1725 12.7657 23.1852 12.7837 23.1941 12.8036C23.203 12.8235 23.2078 12.8449 23.2083 12.8667C23.2083 12.9612 23.0847 12.9975 23.0157 12.9975H21.624C21.5041 12.9975 21.5804 13.1429 21.624 13.1429H22.2272C22.3035 13.1429 22.358 13.1901 22.3507 13.2156C22.3435 13.241 22.3071 13.2773 22.2308 13.2701C22.1545 13.2628 21.8057 13.2701 21.6313 13.2701C21.5622 13.2701 21.555 13.4081 21.6313 13.4081H22.0637C22.14 13.4081 22.1727 13.4372 22.1691 13.4626C22.1625 13.484 22.1489 13.5025 22.1304 13.5151C22.1118 13.5276 22.0896 13.5335 22.0673 13.5317H21.6386C21.5804 13.5317 21.6386 13.7315 21.6386 13.7315C21.6749 13.8382 21.6957 13.9496 21.7003 14.0622C21.6458 14.1639 21.5187 14.0113 21.4387 13.895C21.664 14.2847 22.0017 14.5972 22.4075 14.7917C22.8134 14.9862 23.2685 15.0536 23.7133 14.9851C23.855 14.9561 23.8696 15.0396 23.7351 15.0978C22.8796 15.2025 22.0116 15.0771 21.2207 14.7344C20.7628 14.4873 20.2105 14.6145 19.7091 14.7344C18.6881 14.9815 18.1357 15.4611 17.2419 15.2976C16.9403 15.2431 16.2499 14.9815 16.5769 14.9742C17.4999 15.2467 17.9686 14.996 18.7171 14.5091C19.5965 13.9314 20.1706 14.5782 20.6575 13.9822C20.8755 13.6988 20.6575 13.4445 20.4322 13.2919C20.2069 13.1392 19.8872 13.1865 19.8181 13.4299C19.7672 13.6153 20.0143 13.7933 20.2142 13.7097C20.2796 13.6843 20.2614 13.7424 20.236 13.786C20.1616 13.8803 20.0566 13.9456 19.9393 13.9708C19.8219 13.996 19.6994 13.9795 19.5928 13.9241C19.4856 13.885 19.3939 13.8121 19.3317 13.7165C19.2694 13.6208 19.2399 13.5075 19.2476 13.3936C19.2628 13.2956 19.2985 13.2019 19.3523 13.1186C19.4062 13.0354 19.477 12.9644 19.5601 12.9103L19.5892 12.8813ZM18.9352 9.20768C18.8261 9.41116 18.6917 9.57104 18.5718 9.77452C18.4832 9.87922 18.3635 9.95301 18.2302 9.98527C18.1794 9.98527 18.1648 10.0761 18.114 10.0761C17.8955 10.1025 17.6741 10.0903 17.4599 10.0398C16.7332 9.8145 16.1373 9.29125 15.3597 9.17861C15.3161 9.17861 15.2906 9.12047 15.2434 9.1132C15.1877 9.11706 15.1319 9.11706 15.0763 9.1132C14.9563 9.07324 15.0327 8.91699 15.0763 8.84068C15.1245 8.76294 15.1955 8.70203 15.2797 8.66628C15.4941 8.63357 15.5922 8.9279 15.803 9.02964C16.4571 9.34458 17.1776 9.49666 17.9032 9.47293C18.089 9.48332 18.275 9.45654 18.4503 9.39414C18.6257 9.33175 18.7868 9.235 18.9242 9.10957C18.917 9.08777 18.9388 9.18224 18.9061 9.23675L18.9352 9.20768ZM17.0566 8.5173C17.1309 8.49807 17.2088 8.49798 17.2832 8.51704C17.3575 8.53611 17.4258 8.57369 17.4817 8.6263C17.4989 8.64131 17.5114 8.6609 17.5179 8.68278C17.5243 8.70466 17.5244 8.72793 17.518 8.74984C17.5025 8.79093 17.4725 8.82499 17.4338 8.8457C17.395 8.86641 17.3501 8.87237 17.3073 8.86248C17.231 8.84432 17.2128 8.75348 17.1547 8.73168C17.0057 8.71351 16.9185 8.5936 17.0275 8.54636L17.0566 8.5173ZM14.2078 6.73319C14.2514 6.54425 14.4803 6.46793 14.6475 6.4752C14.8909 6.50041 15.1367 6.4832 15.3742 6.42433C15.4832 6.27172 15.4869 5.89746 15.7376 6.01737C15.8829 6.09004 15.7376 6.41343 15.8357 6.4316C16.0381 6.46938 16.2449 6.47794 16.4498 6.45704C16.5588 6.45704 16.6605 6.21358 16.6714 6.09367C16.6932 5.79935 17.0348 5.83206 17.2528 5.83569C17.3364 6.09731 16.9439 6.16999 16.8894 6.39527C16.8911 6.42359 16.9019 6.45059 16.9203 6.47222C16.9386 6.49384 16.9635 6.50892 16.9912 6.51517C17.3945 6.55878 17.7905 6.56605 18.1939 6.60965C18.2053 6.61294 18.2159 6.61851 18.2251 6.62604C18.2342 6.63357 18.2418 6.6429 18.2472 6.65344C18.2527 6.66399 18.2559 6.67554 18.2567 6.68737C18.2576 6.69921 18.256 6.71109 18.252 6.72229C18.2257 6.77169 18.1864 6.81299 18.1384 6.84179C18.0904 6.87059 18.0355 6.8858 17.9795 6.8858C17.6161 6.9185 17.2964 6.81676 16.9476 6.82766C16.9185 6.82766 16.8931 6.86036 16.9112 6.8749C17.0747 7.00571 17.2746 7.09292 17.3146 7.30004C17.3545 7.50715 17.1111 7.51442 17.1038 7.6634C17.0965 7.81238 17.3582 7.84508 17.2782 8.02676C17.2269 8.11272 17.1584 8.18717 17.077 8.24542C16.9957 8.30368 16.9031 8.34448 16.8052 8.36529C16.7073 8.3861 16.6061 8.38646 16.5081 8.36634C16.41 8.34623 16.3172 8.30608 16.2354 8.2484C16.17 8.21207 16.1881 8.11397 16.1772 8.0522C16.1518 7.89958 16.3589 7.7833 16.3335 7.64522C16.308 7.50715 16.1736 7.46355 16.1918 7.35454C16.2099 7.24553 16.4134 7.15105 16.5152 7.02024C16.5624 6.95847 16.5769 6.82767 16.4897 6.83493C16.0391 6.88581 15.6249 6.75863 15.1889 6.81313C14.9407 6.81894 14.6952 6.86559 14.4622 6.95121C14.3641 7.03842 14.1388 6.92214 14.1787 6.76226L14.2078 6.73319ZM14.1715 9.18588C14.2914 8.94243 14.5712 8.88792 14.7419 8.68444C14.7419 8.68444 14.8074 8.68444 14.8146 8.68444C14.8546 8.81525 14.7529 8.917 14.6875 9.02964C14.5902 9.15105 14.5084 9.28409 14.444 9.4257C14.4356 9.45534 14.4196 9.48222 14.3974 9.50363C14.3753 9.52505 14.3479 9.54022 14.318 9.5476C14.2881 9.55498 14.2567 9.55432 14.2272 9.54567C14.1976 9.53702 14.1709 9.5207 14.1497 9.49837C14.0116 9.43296 14.0988 9.30942 14.1606 9.21495L14.1715 9.18588Z" fill="#95969B"/>
<path d="M15.5061 7.83371C15.4371 7.80827 15.3463 7.87368 15.3172 7.94999C15.2881 8.02629 15.4989 8.11713 15.5534 8.05173C15.5659 8.03472 15.5746 8.01526 15.579 7.99463C15.5833 7.97401 15.5833 7.95269 15.5788 7.93208C15.5744 7.91147 15.5656 7.89205 15.5531 7.87509C15.5405 7.85813 15.5245 7.84403 15.5061 7.83371Z" fill="#95969B"/>
<path d="M47.695 9.42137C47.1245 9.33416 46.3397 9.68299 45.8782 9.93734C45.328 10.1777 44.8713 10.5911 44.5774 11.1146C41.3544 16.4815 37.6154 18.2438 33.4477 19.7953C32.8407 20.0306 32.2129 20.2082 31.5727 20.3258C31.4637 20.3258 31.2965 20.3803 31.5109 20.3258C35.8458 18.9705 44.443 15.1479 45.0461 6.25286C45.166 4.41062 44.7046 4.39971 44.3921 4.47965C43.8411 4.66462 43.327 4.94505 42.8732 5.30812C42.052 5.92946 41.5797 6.8197 41.2635 7.93522C40.1408 11.885 37.6953 15.4968 32.9716 18.182C32.4993 18.4509 32.7391 18.2656 32.9171 18.142L33.3241 17.8695C37.8298 14.919 40.2607 10.9075 40.8711 5.67875C41.1037 3.6621 40.7476 1.21304 40.2788 0.43908C40.2352 0.366408 40.1589 0.253761 40.1153 0.184723C40.0404 0.110557 39.9466 0.0584466 39.844 0.034091C39.7415 0.00973546 39.6342 0.0140841 39.5339 0.0466547C38.7427 0.504152 38.0439 1.10554 37.4737 1.81985C37.2448 2.18321 36.6634 2.9281 36.8596 3.85831C37.6554 7.58639 36.2092 11.3072 33.5385 14.8863C32.2798 16.5236 30.6494 17.8376 28.7821 18.7198C27.2829 19.4045 25.6539 19.7589 24.0057 19.7589C22.3575 19.7589 20.7286 19.4045 19.2293 18.7198C17.3635 17.8353 15.7336 16.5216 14.4729 14.8863C11.8022 11.3072 10.3524 7.58639 11.1482 3.85831C11.348 2.9281 10.7666 2.17594 10.5414 1.81985C9.97026 1.10637 9.27167 0.505124 8.4811 0.0466547C8.38026 0.0141866 8.27247 0.00987799 8.16937 0.034213C8.06627 0.058548 7.97177 0.110592 7.89609 0.184723C7.85249 0.253761 7.77618 0.366408 7.73258 0.43908C7.26384 1.21304 6.90411 3.6621 7.1403 5.67875C7.75438 10.9075 10.1853 14.919 14.6873 17.8695C14.829 17.9604 14.9962 18.0766 15.0943 18.142C15.2723 18.2656 15.5158 18.4509 15.0361 18.182C10.3124 15.4968 7.86702 11.885 6.7515 7.93522C6.52266 6.90374 5.95462 5.97874 5.13817 5.30812C4.68258 4.94574 4.1674 4.66541 3.61569 4.47965C3.3032 4.39971 2.84174 4.41062 2.96528 6.25286C3.56119 15.137 12.1583 18.9705 16.5041 20.3113C16.7185 20.3694 16.5441 20.3331 16.4387 20.3113C15.7986 20.1932 15.1709 20.0156 14.5638 19.7808C10.3924 18.2292 6.65339 16.4669 3.43401 11.1001C3.13907 10.5774 2.68267 10.1643 2.13319 9.92281C1.66446 9.66845 0.879597 9.31962 0.316387 9.40683C-0.119646 9.47587 0.0111533 10.159 0.123795 10.4969C2.90351 18.44 11.308 21.0525 18.1029 21.9173C18.2301 21.9173 18.2773 21.9864 17.2308 21.8955C14.9693 21.624 12.7259 21.2187 10.5123 20.6819C10.0872 20.5729 9.14969 20.2205 8.35393 20.4748C7.71442 20.6819 7.06036 21.0344 7.19117 21.7102C7.27838 22.1426 8.23039 22.5496 8.69549 22.7131C9.74197 23.0765 14.4475 23.7378 20.9807 23.6251C21.7858 24.4277 22.8762 24.8784 24.013 24.8784C25.1497 24.8784 26.2402 24.4277 27.0452 23.6251C33.5857 23.7378 38.284 23.0765 39.3305 22.7131C39.7956 22.5496 40.7512 22.1426 40.8348 21.7102C40.9656 21.0344 40.3115 20.6819 39.6756 20.4748C38.8762 20.2205 37.9388 20.5729 37.5173 20.6819C35.3024 21.2183 33.0578 21.6235 30.7951 21.8955C29.7486 21.9864 29.7959 21.9319 29.9267 21.9173C36.7179 21.0525 45.1224 18.44 47.9058 10.4969C48.0039 10.1735 48.1311 9.49041 47.695 9.42137Z" fill="#95969B"/>
<path d="M31.9661 7.09638C31.9879 7.09638 31.9988 7.03823 32.0352 7.0237C32.0566 7.0164 32.0754 7.00279 32.089 6.98463C32.1027 6.96648 32.1105 6.94463 32.1115 6.92196C32.1115 6.84202 32.0097 6.87836 31.9625 6.87836C31.7227 6.86746 31.8753 7.08184 31.9661 7.09638Z" fill="#95969B"/>
<path d="M24.126 3.82266L24.1515 3.28125L23.3848 3.72455L24.126 3.82266Z" fill="#95969B"/>
<path d="M32.8551 8.07031C32.9277 8.07031 32.9568 7.8959 33.0331 7.82323C33.0465 7.81444 33.0566 7.80148 33.0618 7.78637C33.0671 7.77126 33.0672 7.75484 33.0622 7.73965C33.0222 7.66335 32.9059 7.64882 32.8696 7.63065C32.8332 7.61248 32.7642 7.68879 32.7279 7.75783C32.6915 7.82687 32.6806 7.79052 32.6915 7.81596C32.746 7.91043 32.8042 8.07031 32.8551 8.07031Z" fill="#95969B"/>
<path d="M24.6975 2.57281H24.5486V2.77992H24.6067V2.63094H24.6975V2.77992H24.9083V2.72178H24.7557L24.7593 2.63094H24.9083V2.42383H24.8501V2.57281H24.7593H24.7557V2.42383H24.5449V2.48197H24.6975V2.57281Z" fill="#95969B"/>
<path d="M31.041 7.85196C31.041 7.8992 31.0846 7.98278 31.1246 7.96824C31.1646 7.95371 31.2009 7.89557 31.2372 7.84106C31.2736 7.78656 31.3208 7.70298 31.2663 7.68118C31.2399 7.67393 31.2123 7.67285 31.1854 7.67801C31.1586 7.68318 31.1333 7.69445 31.1115 7.71097C31.0897 7.72748 31.072 7.74879 31.0598 7.77324C31.0476 7.79769 31.0412 7.82463 31.041 7.85196Z" fill="#95969B"/>
<path d="M31.1285 9.03318C31.6372 8.89511 32.1749 9.03319 32.6909 8.98958C32.7854 8.98958 32.7563 8.73523 32.6364 8.73523C32.3581 8.68754 32.0754 8.67048 31.7934 8.68436C31.6081 8.72433 31.2774 8.72797 31.1902 8.76794C31.1593 8.8039 31.1376 8.8468 31.1268 8.89299C31.1161 8.93917 31.1166 8.98726 31.1285 9.03318Z" fill="#95969B"/>
<path d="M21.2839 13.6406C21.283 13.6564 21.283 13.6721 21.2839 13.6879C21.2839 13.6879 21.2912 13.6552 21.2839 13.6406Z" fill="#95969B"/>
<path d="M21.3338 13.7529C21.3338 13.7783 21.3628 13.8001 21.3737 13.8219C21.3483 13.7783 21.3265 13.7311 21.3047 13.6875C21.3159 13.7086 21.3256 13.7305 21.3338 13.7529Z" fill="#95969B"/>
<path d="M24.2936 3.84071L24.9948 3.93155L24.2754 3.2666L24.2936 3.84071Z" fill="#95969B"/>
<path d="M21.3985 13.8834C21.4076 13.9015 21.4186 13.9185 21.4312 13.9343L21.373 13.8398C21.373 13.8398 21.3876 13.8507 21.3985 13.8834Z" fill="#95969B"/>
<path d="M22.1926 5.13054H22.2507L22.2544 5.22501H22.3852V5.18868H22.2907V5.13054H22.3852V4.99609H22.3488V5.0942H22.2907L22.2871 4.99609H22.1562V5.03243H22.2507V5.0942H22.1562V5.22501H22.1926V5.13054Z" fill="#95969B"/>
</g>
<defs>
<clipPath id="clip0_6913_4871">
<rect fill="white" height="24.8793" width="48"/>
</clipPath>
</defs>
</svg>